<mxfile host="Electron" modified="2025-04-03T08:29:51.050Z" agent="Mozilla/5.0 (Windows NT 10.0; Win64; x64) AppleWebKit/537.36 (KHTML, like Gecko) draw.io/22.0.2 Chrome/114.0.5735.289 Electron/25.8.4 Safari/537.36" etag="ph1o7loa7-PaftgstVml" version="22.0.2" type="device">
  <diagram id="R2lEEEUBdFMjLlhIrx00" name="Page-1">
    <mxGraphModel dx="1098" dy="820" grid="1" gridSize="10" guides="1" tooltips="1" connect="1" arrows="1" fold="1" page="1" pageScale="1" pageWidth="850" pageHeight="1100" math="0" shadow="0" extFonts="Permanent Marker^https://fonts.googleapis.com/css?family=Permanent+Marker">
      <root>
        <mxCell id="0" />
        <mxCell id="1" parent="0" />
        <mxCell id="pSALJJKO5EZUqhPM9DtS-37" value="" style="ellipse;whiteSpace=wrap;html=1;" vertex="1" parent="1">
          <mxGeometry x="270" y="100" width="100" height="70" as="geometry" />
        </mxCell>
        <mxCell id="pSALJJKO5EZUqhPM9DtS-32" value="" style="ellipse;whiteSpace=wrap;html=1;" vertex="1" parent="1">
          <mxGeometry x="50" y="530" width="365" height="100" as="geometry" />
        </mxCell>
        <mxCell id="pSALJJKO5EZUqhPM9DtS-1" value="Attribute" style="rounded=0;whiteSpace=wrap;html=1;" vertex="1" parent="1">
          <mxGeometry x="135" y="190" width="120" height="60" as="geometry" />
        </mxCell>
        <mxCell id="pSALJJKO5EZUqhPM9DtS-5" style="edgeStyle=orthogonalEdgeStyle;rounded=0;orthogonalLoop=1;jettySize=auto;html=1;" edge="1" parent="1" source="pSALJJKO5EZUqhPM9DtS-3" target="pSALJJKO5EZUqhPM9DtS-1">
          <mxGeometry relative="1" as="geometry" />
        </mxCell>
        <mxCell id="pSALJJKO5EZUqhPM9DtS-6" value="ID" style="edgeLabel;html=1;align=center;verticalAlign=middle;resizable=0;points=[];" vertex="1" connectable="0" parent="pSALJJKO5EZUqhPM9DtS-5">
          <mxGeometry x="-0.0889" y="-1" relative="1" as="geometry">
            <mxPoint as="offset" />
          </mxGeometry>
        </mxCell>
        <mxCell id="pSALJJKO5EZUqhPM9DtS-3" value="Localization" style="rounded=0;whiteSpace=wrap;html=1;" vertex="1" parent="1">
          <mxGeometry x="135" y="360" width="120" height="60" as="geometry" />
        </mxCell>
        <mxCell id="pSALJJKO5EZUqhPM9DtS-17" style="rounded=0;orthogonalLoop=1;jettySize=auto;html=1;entryX=0;entryY=0.75;entryDx=0;entryDy=0;endArrow=none;endFill=0;" edge="1" parent="1" source="pSALJJKO5EZUqhPM9DtS-9" target="pSALJJKO5EZUqhPM9DtS-3">
          <mxGeometry relative="1" as="geometry" />
        </mxCell>
        <mxCell id="pSALJJKO5EZUqhPM9DtS-9" value="&lt;u&gt;LC_ID&lt;/u&gt;" style="ellipse;whiteSpace=wrap;html=1;" vertex="1" parent="1">
          <mxGeometry x="20" y="390" width="80" height="50" as="geometry" />
        </mxCell>
        <mxCell id="pSALJJKO5EZUqhPM9DtS-10" value="LC_AT_1" style="ellipse;whiteSpace=wrap;html=1;" vertex="1" parent="1">
          <mxGeometry x="65" y="550" width="80" height="50" as="geometry" />
        </mxCell>
        <mxCell id="pSALJJKO5EZUqhPM9DtS-29" style="rounded=0;orthogonalLoop=1;jettySize=auto;html=1;entryX=1;entryY=0.75;entryDx=0;entryDy=0;endArrow=none;endFill=0;" edge="1" parent="1" source="pSALJJKO5EZUqhPM9DtS-11" target="pSALJJKO5EZUqhPM9DtS-3">
          <mxGeometry relative="1" as="geometry" />
        </mxCell>
        <mxCell id="pSALJJKO5EZUqhPM9DtS-11" value="LC_AT_4" style="ellipse;whiteSpace=wrap;html=1;" vertex="1" parent="1">
          <mxGeometry x="325" y="555" width="80" height="50" as="geometry" />
        </mxCell>
        <mxCell id="pSALJJKO5EZUqhPM9DtS-28" style="rounded=0;orthogonalLoop=1;jettySize=auto;html=1;entryX=1;entryY=1;entryDx=0;entryDy=0;endArrow=none;endFill=0;" edge="1" parent="1" source="pSALJJKO5EZUqhPM9DtS-12" target="pSALJJKO5EZUqhPM9DtS-3">
          <mxGeometry relative="1" as="geometry" />
        </mxCell>
        <mxCell id="pSALJJKO5EZUqhPM9DtS-12" value="LC_AT_3" style="ellipse;whiteSpace=wrap;html=1;strokeColor=default;" vertex="1" parent="1">
          <mxGeometry x="235" y="555" width="80" height="50" as="geometry" />
        </mxCell>
        <mxCell id="pSALJJKO5EZUqhPM9DtS-26" style="rounded=0;orthogonalLoop=1;jettySize=auto;html=1;entryX=0.683;entryY=0.983;entryDx=0;entryDy=0;endArrow=none;endFill=0;entryPerimeter=0;" edge="1" parent="1" source="pSALJJKO5EZUqhPM9DtS-13" target="pSALJJKO5EZUqhPM9DtS-3">
          <mxGeometry relative="1" as="geometry" />
        </mxCell>
        <mxCell id="pSALJJKO5EZUqhPM9DtS-13" value="LC_AT_2" style="ellipse;whiteSpace=wrap;html=1;" vertex="1" parent="1">
          <mxGeometry x="145" y="550" width="80" height="50" as="geometry" />
        </mxCell>
        <mxCell id="pSALJJKO5EZUqhPM9DtS-30" style="rounded=0;orthogonalLoop=1;jettySize=auto;html=1;entryX=1;entryY=0.5;entryDx=0;entryDy=0;endArrow=none;endFill=0;" edge="1" parent="1" source="pSALJJKO5EZUqhPM9DtS-15" target="pSALJJKO5EZUqhPM9DtS-3">
          <mxGeometry relative="1" as="geometry" />
        </mxCell>
        <mxCell id="pSALJJKO5EZUqhPM9DtS-15" value="LC_TEXT_DE" style="ellipse;whiteSpace=wrap;html=1;" vertex="1" parent="1">
          <mxGeometry x="340" y="430" width="80" height="50" as="geometry" />
        </mxCell>
        <mxCell id="pSALJJKO5EZUqhPM9DtS-31" style="rounded=0;orthogonalLoop=1;jettySize=auto;html=1;entryX=1;entryY=0.25;entryDx=0;entryDy=0;endArrow=none;endFill=0;" edge="1" parent="1" source="pSALJJKO5EZUqhPM9DtS-16" target="pSALJJKO5EZUqhPM9DtS-3">
          <mxGeometry relative="1" as="geometry" />
        </mxCell>
        <mxCell id="pSALJJKO5EZUqhPM9DtS-16" value="LC_TEXT_EN" style="ellipse;whiteSpace=wrap;html=1;" vertex="1" parent="1">
          <mxGeometry x="340" y="350" width="80" height="50" as="geometry" />
        </mxCell>
        <mxCell id="pSALJJKO5EZUqhPM9DtS-25" value="" style="endArrow=none;html=1;rounded=0;" edge="1" parent="1" source="pSALJJKO5EZUqhPM9DtS-10" target="pSALJJKO5EZUqhPM9DtS-3">
          <mxGeometry width="50" height="50" relative="1" as="geometry">
            <mxPoint x="400" y="450" as="sourcePoint" />
            <mxPoint x="450" y="400" as="targetPoint" />
          </mxGeometry>
        </mxCell>
        <mxCell id="pSALJJKO5EZUqhPM9DtS-34" style="rounded=0;orthogonalLoop=1;jettySize=auto;html=1;endArrow=none;endFill=0;" edge="1" parent="1" source="pSALJJKO5EZUqhPM9DtS-33" target="pSALJJKO5EZUqhPM9DtS-1">
          <mxGeometry relative="1" as="geometry" />
        </mxCell>
        <mxCell id="pSALJJKO5EZUqhPM9DtS-33" value="&lt;u&gt;AT_ID&lt;/u&gt;" style="ellipse;whiteSpace=wrap;html=1;" vertex="1" parent="1">
          <mxGeometry x="170" y="100" width="80" height="50" as="geometry" />
        </mxCell>
        <mxCell id="pSALJJKO5EZUqhPM9DtS-36" style="rounded=0;orthogonalLoop=1;jettySize=auto;html=1;entryX=0.75;entryY=0;entryDx=0;entryDy=0;endArrow=none;endFill=0;" edge="1" parent="1" source="pSALJJKO5EZUqhPM9DtS-35" target="pSALJJKO5EZUqhPM9DtS-1">
          <mxGeometry relative="1" as="geometry" />
        </mxCell>
        <mxCell id="pSALJJKO5EZUqhPM9DtS-35" value="AT_NAME" style="ellipse;whiteSpace=wrap;html=1;" vertex="1" parent="1">
          <mxGeometry x="280" y="110" width="80" height="50" as="geometry" />
        </mxCell>
      </root>
    </mxGraphModel>
  </diagram>
</mxfile>
